<svg xmlns="http://www.w3.org/2000/svg" xmlns:xlink="http://www.w3.org/1999/xlink" width="100" height="100" viewBox="0 0 100 100"><g><g transform="translate(50 50) scale(0.69 0.69) rotate(0) translate(-50 -50)" style="fill:#2bc016"><svg fill="#2bc016" xmlns="http://www.w3.org/2000/svg" xmlns:xlink="http://www.w3.org/1999/xlink" version="1.1" x="0px" y="0px" viewBox="0 0 512 512" style="enable-background:new 0 0 512 512;" xml:space="preserve"><g><g><polygon points="173.861,228.831 90.239,249.775 316.438,380.377 292.74,297.455   "></polygon><polygon points="259.828,85.621 180.328,223.31 294.289,289.088 373.791,151.444 288.815,102.357   "></polygon><polygon points="116.416,465.629 215.214,332.61 182.212,313.54   "></polygon><path d="M414.968,100.84L283.064,24.686c-4.252-2.452-9.094-3.749-14.002-3.749c-10.105,0-19.494,5.388-24.503,14.061    c-0.062,0.108-0.129,0.212-0.2,0.313c-7.495,13.442-2.827,30.518,10.516,38.214l5.421,3.131c0.023,0.013,0.049,0.019,0.072,0.032    l34.904,20.163l91.497,52.83c4.252,2.449,9.097,3.745,14.006,3.745c10.108-0.001,19.495-5.387,24.498-14.056    C433.036,125.894,428.413,108.608,414.968,100.84z"></path></g></g></svg></g></g></svg>